<?xml version="1.0" encoding="UTF-8"?>
<svg width="60px" height="60px" viewBox="0 0 60 60" version="1.1" xmlns="http://www.w3.org/2000/svg" xmlns:xlink="http://www.w3.org/1999/xlink">
    <!-- Generator: Sketch 43.1 (39012) - http://www.bohemiancoding.com/sketch -->
    <title>icon_book</title>
    <desc>Created with Sketch.</desc>
    <defs></defs>
    <g id="Page-1" stroke="none" stroke-width="1" fill="none" fill-rule="evenodd">
        <g id="icon_book" fill="#FFFFFF">
            <g id="Group" transform="translate(1.000000, 2.000000)">
                <path d="M56,46 L42,46 C36.49,46 32.535,49.241 32.05,54 L25.95,54 C25.465,49.241 21.51,46 16,46 L2,46 L2,8.087 L6,8.087 L6,41 C6,41.552 6.447,42 7,42 L20,42 C24.486,42 28,45.514 28,50 C28,50.552 28.447,51 29,51 C29.553,51 30,50.552 30,50 C30,45.421 33.695,42 37,42 L51,42 C51.553,42 52,41.552 52,41 L52,8 L56,8 L56,46 Z M8,2 L21,2 C24.394,2 28,4.453 28,9 L28,43.967 C26.191,41.551 23.317,40 20,40 L8,40 L8,2 Z M37,2 L50,2 L50,40 L37,40 C34.234,40 31.68,41.569 30,43.907 L30,9 C30,4.453 33.606,2 37,2 L37,2 Z M57,6 L52,6 L52,1 C52,0.448 51.553,0 51,0 L37,0 C33.833,0 30.589,1.725 29,4.772 C27.411,1.725 24.167,0 21,0 L7,0 C6.447,0 6,0.448 6,1 L6,6.087 L1,6.087 C0.447,6.087 0,6.535 0,7.087 L0,47 C0,47.552 0.447,48 1,48 L16,48 C19.982,48 24,50.165 24,55 C24,55.552 24.447,56 25,56 L33,56 C33.553,56 34,55.552 34,55 C34,50.165 38.018,48 42,48 L57,48 C57.553,48 58,47.552 58,47 L58,7 C58,6.448 57.553,6 57,6 L57,6 Z" id="Fill-3064"></path>
            </g>
        </g>
    </g>
</svg>