<?xml version="1.0" encoding="UTF-8"?>
<svg width="60px" height="60px" viewBox="0 0 60 60" version="1.1" xmlns="http://www.w3.org/2000/svg" xmlns:xlink="http://www.w3.org/1999/xlink">
    <!-- Generator: Sketch 43.1 (39012) - http://www.bohemiancoding.com/sketch -->
    <title>icon_reel</title>
    <desc>Created with Sketch.</desc>
    <defs></defs>
    <g id="Page-1" stroke="none" stroke-width="1" fill="none" fill-rule="evenodd">
        <g id="icon_reel" fill="#FFFFFF">
            <g id="Group-2">
                <path d="M38.8262,2 C49.3982,2 58.0002,10.602 58.0002,21.174 C58.0002,31.746 49.3982,40.348 38.8262,40.348 C28.2542,40.348 19.6522,31.746 19.6522,21.174 C19.6522,10.602 28.2542,2 38.8262,2 M51.0002,48 L7.0002,48 C4.5852,48 2.0002,45.991 2.0002,43 C2.0002,40.243 4.3802,38 7.3052,38 L26.0252,38 C29.5852,40.715 34.0132,42.348 38.8262,42.348 C50.5012,42.348 60.0002,32.849 60.0002,21.174 C60.0002,9.499 50.5012,0 38.8262,0 C27.1512,0 17.6522,9.499 17.6522,21.174 C17.6522,26.944 19.9782,32.177 23.7352,36 L7.3052,36 C3.2772,36 0.0002,39.141 0.0002,43 C0.0002,47.188 3.6192,50 7.0002,50 L51.0002,50 C53.3862,50 55.4782,51.849 55.4782,53.956 C55.4782,56.072 53.3442,58 51.0002,58 L26.0002,58 C25.4482,58 25.0002,58.447 25.0002,59 C25.0002,59.553 25.4482,60 26.0002,60 L51.0002,60 C54.4512,60 57.4782,57.176 57.4782,53.956 C57.4782,50.728 54.5122,48 51.0002,48" id="Fill-1"></path>
                <path d="M38.8262,18.3916 C40.3602,18.3916 41.6082,19.6396 41.6082,21.1736 C41.6082,22.7076 40.3602,23.9556 38.8262,23.9556 C37.2922,23.9556 36.0432,22.7076 36.0432,21.1736 C36.0432,19.6396 37.2922,18.3916 38.8262,18.3916 M38.8262,25.9556 C41.4632,25.9556 43.6082,23.8106 43.6082,21.1736 C43.6082,18.5376 41.4632,16.3916 38.8262,16.3916 C36.1892,16.3916 34.0432,18.5376 34.0432,21.1736 C34.0432,23.8106 36.1892,25.9556 38.8262,25.9556" id="Fill-3"></path>
                <path d="M43.2725,7.9219 L41.6525,11.7949 C40.7195,11.5129 39.7575,11.3689 38.7825,11.3689 C37.8365,11.3689 36.9065,11.5049 36.0065,11.7749 L34.3675,7.8259 C37.0645,6.9589 40.1395,6.9989 43.2725,7.9219 M32.1675,7.7429 L34.5235,13.4179 C34.7355,13.9279 35.3205,14.1699 35.8305,13.9579 C37.6785,13.1929 39.7645,13.1789 41.6455,13.9069 C41.7575,13.9819 41.8855,14.0339 42.0245,14.0599 C42.0835,14.0699 42.1435,14.0749 42.2015,14.0749 C42.5985,14.0749 42.9665,13.8379 43.1235,13.4609 L45.5365,7.6909 C45.6655,7.3819 45.6305,7.0289 45.4455,6.7509 C45.3205,6.5639 45.1385,6.4269 44.9305,6.3569 C40.7015,4.8689 36.4815,4.8149 32.8825,6.2349 C32.8625,6.2369 32.8415,6.2409 32.8215,6.2449 C32.3495,6.3489 32.0185,6.7749 32.0345,7.2569 L32.0355,7.2849 C32.0415,7.4489 32.0875,7.6059 32.1675,7.7429" id="Fill-5"></path>
                <path d="M25.5825,16.6953 L29.8725,18.3383 C29.1645,20.0623 29.1085,22.0073 29.7125,23.9773 L25.4825,25.6483 C24.4205,22.3723 24.8605,19.1363 25.5825,16.6953 L25.5825,16.6953 Z M31.3485,25.4813 C31.5975,25.3833 31.7965,25.1883 31.9005,24.9423 C32.0055,24.6953 32.0065,24.4173 31.9045,24.1693 C31.2885,22.6793 30.8245,20.4543 32.1165,18.3133 C32.2695,18.0603 32.3025,17.7523 32.2065,17.4713 C32.1095,17.1913 31.8945,16.9683 31.6175,16.8633 L25.3125,14.4533 C25.0615,14.3543 24.7815,14.3663 24.5365,14.4793 C24.2915,14.5923 24.1025,14.7993 24.0125,15.0543 C22.9505,18.0683 22.0795,22.6053 23.9125,27.1833 C24.0145,27.6403 24.4345,27.9643 24.9015,27.9643 C24.9135,27.9643 24.9245,27.9643 24.9355,27.9633 C25.0935,27.9583 25.2455,27.9143 25.3795,27.8403 L31.3485,25.4813 Z" id="Fill-7"></path>
                <path d="M34.3457,34.417 L35.9877,30.129 C37.7007,30.834 39.6657,30.89 41.6277,30.288 L43.2987,34.517 C40.5887,35.392 37.4967,35.351 34.3457,34.417 L34.3457,34.417 Z M43.1317,28.652 C43.0327,28.402 42.8387,28.203 42.5917,28.099 C42.3447,27.994 42.0657,27.993 41.8187,28.096 C39.7167,28.966 37.6477,28.898 35.9637,27.883 C35.7107,27.731 35.4037,27.696 35.1217,27.794 C34.8427,27.89 34.6187,28.105 34.5127,28.382 L32.1007,34.686 C31.9837,34.993 32.0257,35.339 32.2127,35.609 C32.3367,35.791 32.5157,35.923 32.7187,35.991 C34.9017,36.76 37.0727,37.148 39.1727,37.148 C41.1687,37.148 43.0727,36.792 44.8337,36.087 C45.3017,35.981 45.6297,35.544 45.6137,35.063 C45.6087,34.905 45.5647,34.753 45.4897,34.619 L43.1317,28.652 Z" id="Fill-9"></path>
                <path d="M47.9395,18.3711 L52.1685,16.6981 C53.2315,19.9771 52.7895,23.2131 52.0685,25.6531 L47.7785,24.0121 C48.4875,22.2871 48.5435,20.3421 47.9395,18.3711 M45.5355,24.0311 C45.4405,24.1871 45.3915,24.3691 45.3915,24.5521 C45.3915,24.9661 45.6465,25.3381 46.0335,25.4851 L52.3375,27.8971 C52.4535,27.9411 52.5735,27.9641 52.6925,27.9641 C52.8935,27.9641 53.0925,27.9031 53.2625,27.7861 C53.4435,27.6611 53.5765,27.4811 53.6435,27.2781 C54.7035,24.2641 55.5685,19.7321 53.7375,15.1591 C53.6275,14.6791 53.1585,14.3451 52.6775,14.3881 C52.5315,14.3981 52.3925,14.4401 52.2675,14.5091 L46.3035,16.8671 C46.0545,16.9661 45.8545,17.1601 45.7495,17.4071 C45.6455,17.6531 45.6445,17.9321 45.7475,18.1801 C46.3645,19.6691 46.8285,21.8931 45.5355,24.0311" id="Fill-11"></path>
            </g>
        </g>
    </g>
</svg>