<?xml version="1.0" encoding="UTF-8"?>
<svg width="280px" height="19px" viewBox="0 0 280 19" version="1.1" xmlns="http://www.w3.org/2000/svg" xmlns:xlink="http://www.w3.org/1999/xlink">
    <!-- Generator: Sketch 43.1 (39012) - http://www.bohemiancoding.com/sketch -->
    <title>Artboard Copy 4</title>
    <desc>Created with Sketch.</desc>
    <defs></defs>
    <g id="Page-1" stroke="none" stroke-width="1" fill="none" fill-rule="evenodd">
        <g id="Artboard-Copy-4" fill="#000000">
            <g id="logo_incmac_line-copy">
                <path d="M202.523128,6.45713055 L198.43103,17.9278735 L197.036884,17.9278735 L192.745456,6.45713055 L191.639814,15.153158 C191.617084,15.3281608 191.594936,15.6125403 191.594936,15.6994661 C191.594936,16.7483315 192.059457,16.9883847 193.696646,17.0977615 L193.696646,17.9278735 L188.43188,17.9278735 L188.43188,17.0977615 C189.692556,17.0327111 190.157077,16.7702069 190.267816,15.7650921 L191.661379,5.01508443 C191.661379,3.85684219 191.241154,3.4855369 189.781147,3.41991085 L189.781147,2.58979888 L195.333835,2.58979888 C195.377548,3.09235627 195.511017,3.46366155 195.687617,3.94434359 L199.005708,12.9247506 L202.125051,3.94434359 C202.302233,3.41991085 202.456685,3.09235627 202.500981,2.58979888 L207.942929,2.58979888 L207.942929,3.41991085 C206.505653,3.4855369 206.084845,3.85684219 206.084845,5.01508443 L207.45626,15.7650921 C207.611295,16.8358329 208.075816,17.0327111 209.314344,17.0977615 L209.314344,17.9278735 L201.549791,17.9278735 L201.549791,17.0977615 C203.120536,16.9883847 203.651501,16.7483315 203.651501,15.6994661 C203.651501,15.6125403 203.629353,15.3281608 203.629353,15.153158 L202.523128,6.45713055 Z" id="Fill-1"></path>
                <path d="M216.549915,15.6775907 L216.549915,11.6133809 L214.97917,12.225315 C214.116571,12.574745 213.563459,13.0116763 213.563459,14.2574199 C213.563459,15.3937868 214.050128,16.2020234 215.200648,16.2020234 C215.709464,16.2020234 216.063246,16.005721 216.549915,15.6775907 L216.549915,15.6775907 Z M220.067336,15.5244633 C220.067336,16.1582727 220.178075,16.6170794 220.731187,16.6170794 C221.062822,16.6170794 221.350743,16.529578 221.54949,16.4420766 L221.682377,16.967085 C221.019109,17.7096956 220.13378,18.146627 218.983259,18.146627 C217.744731,18.146627 216.903697,17.4477671 216.616359,16.2676495 C215.930942,17.1852629 214.824718,18.1028763 213.231825,18.1028763 C211.395305,18.1028763 210.156777,17.0321354 210.156777,15.218784 C210.156777,13.3179312 211.506044,12.5534453 213.121086,11.9633865 L216.549915,10.7613936 L216.549915,8.72986431 C216.549915,7.59349743 216.196133,6.80656048 215.1785,6.80656048 C214.22731,6.80656048 213.829232,7.54974673 213.829232,8.59803654 C213.829232,9.0574189 213.895676,9.51622559 214.02798,10.018783 L211.904122,10.3025869 C211.285149,10.1057087 210.864924,9.60372699 210.864924,8.86054075 C210.864924,6.95968794 212.855895,6.04207456 215.422126,6.04207456 C218.364287,6.04207456 220.067336,7.02473832 220.067336,9.73440342 L220.067336,15.5244633 Z" id="Fill-3"></path>
                <path d="M228.646871,15.7212838 C229.974573,15.7212838 230.947911,15.2187265 231.655475,14.1917363 L232.097848,14.4323652 C231.390284,16.9451521 229.686652,18.1465694 227.319751,18.1465694 C224.288999,18.1465694 222.032837,15.961337 222.032837,12.4658863 C222.032837,8.79485713 224.333294,6.04201699 227.917159,6.04201699 C230.106877,6.04201699 231.766214,6.89400432 231.766214,8.68605604 C231.766214,9.45054197 231.345988,9.99685006 230.85932,10.2150279 L228.978505,10.2150279 C229.023383,9.80054758 229.067096,9.45054197 229.067096,9.05736133 C229.067096,7.8553684 228.691166,6.93775502 227.541229,6.93775502 C226.014779,6.93775502 225.107885,8.75110643 225.107885,11.0894662 C225.107885,13.9079324 226.412274,15.7212838 228.646871,15.7212838" id="Fill-5"></path>
                <path d="M234.191865,3.0487207 L232.930606,2.39303586 L232.930606,1.84672777 L237.178321,0.819737634 L237.752998,0.819737634 L237.752998,8.20497104 C238.638328,7.13423021 239.921152,6.04218969 241.845679,6.04218969 C243.947389,6.04218969 245.097909,7.24360696 245.097909,9.62514181 L245.097909,16.2458893 C245.097909,16.9666245 245.451691,17.0760013 246.402881,17.1416273 L246.402881,17.9279886 L240.275517,17.9279886 L240.275517,17.1416273 C241.226706,17.0760013 241.536193,16.9666245 241.536193,16.2458893 L241.536193,9.86577066 C241.536193,8.72940378 241.115967,8.13992065 239.943299,8.13992065 C239.124996,8.13992065 238.394702,8.44559989 237.752998,8.83878053 L237.752998,16.2458893 C237.752998,16.9666245 238.063068,17.0760013 239.014257,17.1416273 L239.014257,17.9279886 L232.88631,17.9279886 L232.88631,17.1416273 C233.838083,17.0760013 234.191865,16.9666245 234.191865,16.2458893 L234.191865,3.0487207 Z" id="Fill-7"></path>
                <path d="M248.951161,3.02696048 C248.951161,2.0218457 249.725751,1.14798302 250.919984,1.14798302 C252.1148,1.14798302 252.910955,2.0218457 252.910955,3.02696048 C252.910955,4.03207526 252.1148,4.88406259 250.919984,4.88406259 C249.725751,4.88406259 248.951161,4.03207526 248.951161,3.02696048 L248.951161,3.02696048 Z M252.711625,16.2454287 C252.711625,16.9667396 253.06599,17.0761164 254.017179,17.1417424 L254.017179,17.9281037 L247.845519,17.9281037 L247.845519,17.1417424 C248.796126,17.0761164 249.149908,16.9667396 249.149908,16.2454287 L249.149908,8.53321643 L247.867667,7.76815483 L247.867667,7.26559744 L252.1148,6.04230482 L252.711625,6.04230482 L252.711625,16.2454287 Z" id="Fill-9"></path>
                <path d="M264.132897,9.86559796 C264.132897,8.72980674 263.712672,8.13974795 262.540004,8.13974795 C261.721701,8.13974795 260.969841,8.44542719 260.350286,8.83860783 L260.350286,16.2457166 C260.350286,16.9670275 260.659772,17.0758286 261.610962,17.1414546 L261.610962,17.9283916 L255.483014,17.9283916 L255.483014,17.1414546 C256.434204,17.0758286 256.788569,16.9670275 256.788569,16.2457166 L256.788569,8.53292859 L255.505162,7.76844266 L255.505162,7.26588527 L259.774443,6.04201699 L260.438294,6.04201699 L260.350286,8.20479834 C261.235032,7.13463317 262.495708,6.04201699 264.442384,6.04201699 C266.544094,6.04201699 267.694614,7.22213457 267.694614,9.60366942 L267.694614,16.2457166 C267.694614,16.9670275 268.048396,17.0758286 268.999586,17.1414546 L268.999586,17.9283916 L262.871638,17.9283916 L262.871638,17.1414546 C263.822828,17.0758286 264.132897,16.9670275 264.132897,16.2457166 L264.132897,9.86559796 Z" id="Fill-11"></path>
                <path d="M272.621801,10.3244046 L276.603743,10.3244046 C276.603743,8.24854904 276.117074,6.89400432 274.812102,6.89400432 C273.462834,6.89400432 272.754687,8.31417509 272.621801,10.3244046 M279.722503,10.7175853 L279.722503,11.2201427 L272.577505,11.2201427 C272.511644,14.0823596 274.037512,15.7869099 276.117074,15.7869099 C277.599228,15.7869099 278.616861,15.2187265 279.435164,14.1048106 L279.811677,14.3229884 C279.236417,16.6170219 277.57708,18.1465694 274.90011,18.1465694 C271.670611,18.1465694 269.369571,15.8962866 269.369571,12.3783849 C269.369571,8.55480394 271.935802,6.04201699 275.055145,6.04201699 C278.130193,6.04201699 279.722503,8.00849585 279.722503,10.7175853" id="Fill-13"></path>
                <path d="M14.5990744,2.58974131 L14.9307086,7.8553684 L14.1345533,7.8553684 C12.6302512,4.51246947 12.0549911,3.41985329 10.4626806,3.41985329 L9.51149076,3.41985329 L9.51149076,15.6775331 C9.51149076,16.8576507 9.93171619,16.9232768 11.4138705,17.0977039 L11.4138705,17.9283916 L3.82591648,17.9283916 L3.82591648,17.0977039 C5.3080708,16.9232768 5.75044403,16.8576507 5.75044403,15.6775331 L5.75044403,3.41985329 L4.77710636,3.41985329 C3.18421302,3.41985329 2.6095358,4.51246947 1.10465084,7.8553684 L0.308495589,7.8553684 L0.640129804,2.58974131 L14.5990744,2.58974131 Z" id="Fill-15"></path>
                <path d="M17.0159825,3.0487207 L15.7547234,2.39303586 L15.7547234,1.84672777 L20.002439,0.819737634 L20.577699,0.819737634 L20.577699,8.20497104 C21.4624455,7.13423021 22.7458524,6.04218969 24.6697972,6.04218969 C26.7715071,6.04218969 27.9220272,7.24360696 27.9220272,9.62514181 L27.9220272,16.2458893 C27.9220272,16.9666245 28.2758093,17.0760013 29.2269991,17.1416273 L29.2269991,17.9279886 L23.0996345,17.9279886 L23.0996345,17.1416273 C24.0508243,17.0760013 24.3603107,16.9666245 24.3603107,16.2458893 L24.3603107,9.86577066 C24.3603107,8.72940378 23.9400853,8.13992065 22.7674174,8.13992065 C21.9491144,8.13992065 21.2194025,8.44559989 20.577699,8.83878053 L20.577699,16.2458893 C20.577699,16.9666245 20.8871855,17.0760013 21.8383753,17.1416273 L21.8383753,17.9279886 L15.7110107,17.9279886 L15.7110107,17.1416273 C16.6622005,17.0760013 17.0159825,16.9666245 17.0159825,16.2458893 L17.0159825,3.0487207 Z" id="Fill-17"></path>
                <path d="M32.8493307,10.3244046 L36.8312726,10.3244046 C36.8312726,8.24854904 36.3446038,6.89400432 35.0396319,6.89400432 C33.6903644,6.89400432 32.9822175,8.31417509 32.8493307,10.3244046 M39.9506159,10.7175853 L39.9506159,11.2201427 L32.8050351,11.2201427 C32.7385917,14.0823596 34.2650416,15.7869099 36.3446038,15.7869099 C37.8267581,15.7869099 38.8443914,15.2187265 39.6626944,14.1048106 L40.0386242,14.3229884 C39.463947,16.6170219 37.8046103,18.1465694 35.1276402,18.1465694 C31.8981408,18.1465694 29.5976834,15.8962866 29.5976834,12.3783849 C29.5976834,8.55480394 32.1633316,6.04201699 35.2826749,6.04201699 C38.3577225,6.04201699 39.9506159,8.00849585 39.9506159,10.7175853" id="Fill-19"></path>
                <path d="M66.2918728,15.5902044 C66.2918728,16.7697464 66.4690552,16.9228738 67.9955051,17.0978766 L67.9955051,17.9279886 L60.8499243,17.9279886 L60.8499243,17.0978766 C62.3542265,16.9228738 62.5314089,16.7697464 62.5314089,15.5902044 L62.5314089,4.92769816 C62.5314089,3.74815624 62.3542265,3.59502879 60.8499243,3.42002599 L60.8499243,2.58991401 L67.9955051,2.58991401 L67.9955051,3.42002599 C66.4690552,3.59502879 66.2918728,3.74815624 66.2918728,4.92769816 L66.2918728,15.5902044 Z" id="Fill-21"></path>
                <path d="M77.8867142,9.86559796 C77.8867142,8.72980674 77.4664887,8.13974795 76.2938208,8.13974795 C75.4755178,8.13974795 74.7236581,8.44542719 74.1041025,8.83860783 L74.1041025,16.2457166 C74.1041025,16.9670275 74.4135889,17.0758286 75.3653616,17.1414546 L75.3653616,17.9283916 L69.2374141,17.9283916 L69.2374141,17.1414546 C70.188604,17.0758286 70.542386,16.9670275 70.542386,16.2457166 L70.542386,8.53292859 L69.2595619,7.76844266 L69.2595619,7.26588527 L73.5288424,6.04201699 L74.1921108,6.04201699 L74.1041025,8.20479834 C74.9888489,7.13463317 76.2501081,6.04201699 78.1967834,6.04201699 C80.2979106,6.04201699 81.4484307,7.22213457 81.4484307,9.60366942 L81.4484307,16.2457166 C81.4484307,16.9670275 81.8022127,17.0758286 82.7534026,17.1414546 L82.7534026,17.9283916 L76.6260379,17.9283916 L76.6260379,17.1414546 C77.5772278,17.0758286 77.8867142,16.9670275 77.8867142,16.2457166 L77.8867142,9.86559796 Z" id="Fill-23"></path>
                <path d="M89.7382952,15.7212838 C91.0654149,15.7212838 92.0387526,15.2187265 92.7468995,14.1917363 L93.1892727,14.4323652 C92.4811258,16.9451521 90.7780763,18.1465694 88.4105927,18.1465694 C85.3804235,18.1465694 83.1242617,15.961337 83.1242617,12.4658863 C83.1242617,8.79485713 85.4241362,6.04201699 89.0085834,6.04201699 C91.1983017,6.04201699 92.8576385,6.89400432 92.8576385,8.68605604 C92.8576385,9.45054197 92.4368302,9.99685006 91.9507442,10.2150279 L90.0699294,10.2150279 C90.114225,9.80054758 90.1585206,9.45054197 90.1585206,9.05736133 C90.1585206,7.8553684 89.7825908,6.93775502 88.6320707,6.93775502 C87.1056208,6.93775502 86.1981437,8.75110643 86.1981437,11.0894662 C86.1981437,13.9079324 87.5036984,15.7212838 89.7382952,15.7212838" id="Fill-25"></path>
                <path d="M99.1231355,15.9833275 C99.1231355,16.9015166 99.6098044,17.0103176 100.936924,17.1415697 L100.936924,17.927931 L94.2564471,17.927931 L94.2564471,17.1415697 C95.207637,17.0759437 95.561419,16.9665669 95.561419,16.2458317 L95.561419,8.53304373 L94.2785949,7.76798213 L94.2785949,7.26600041 L98.5478755,6.04213212 L99.2117267,6.04213212 L99.1231355,9.34128035 C100.09589,6.8722441 100.80462,6.04213212 102.153888,6.04213212 C102.640556,6.04213212 102.994338,6.19468391 103.193669,6.41343741 L103.193669,9.07935182 L102.729148,9.07935182 C101.335585,9.07935182 100.185064,9.1444022 99.1231355,10.0844666 L99.1231355,15.9833275 Z" id="Fill-27"></path>
                <path d="M107.125428,10.3244046 L111.10737,10.3244046 C111.10737,8.24854904 110.620701,6.89400432 109.315147,6.89400432 C107.966462,6.89400432 107.258315,8.31417509 107.125428,10.3244046 M114.226714,10.7175853 L114.226714,11.2201427 L107.081133,11.2201427 C107.014689,14.0823596 108.541139,15.7869099 110.620701,15.7869099 C112.102856,15.7869099 113.120489,15.2187265 113.938792,14.1048106 L114.314722,14.3229884 C113.740045,16.6170219 112.080708,18.1465694 109.403738,18.1465694 C106.174238,18.1465694 103.873781,15.8962866 103.873781,12.3783849 C103.873781,8.55480394 106.439429,6.04201699 109.558773,6.04201699 C112.63382,6.04201699 114.226714,8.00849585 114.226714,10.7175853" id="Fill-29"></path>
                <path d="M119.483495,11.4825317 C119.483495,14.1703215 120.523276,16.092474 122.38136,16.092474 C123.000916,16.092474 123.53188,15.9180469 123.974253,15.5904923 L123.974253,9.66918034 C123.974253,8.07400677 123.398993,7.17826874 122.160465,7.17826874 C120.434685,7.17826874 119.483495,8.90411875 119.483495,11.4825317 L119.483495,11.4825317 Z M122.691429,2.39274802 L122.691429,1.8470156 L126.96071,0.820025468 L127.53597,0.820025468 L127.53597,15.5248662 C127.53597,16.2674768 127.580265,16.5518564 128.376421,16.5956071 L128.907385,16.6174824 L128.907385,17.3819683 L124.549513,18.1464543 L123.90781,18.1464543 L123.974253,16.092474 C123.067359,17.3819683 121.916839,18.1464543 120.390389,18.1464543 C117.757715,18.1464543 115.944509,16.0711743 115.944509,12.640774 C115.944509,8.44531206 118.465861,6.10752791 121.673796,6.10752791 C122.647134,6.10752791 123.443289,6.36945644 123.974253,6.80696345 L123.974253,3.04900853 L122.691429,2.39274802 Z" id="Fill-31"></path>
                <path d="M131.352911,3.02696048 C131.352911,2.0218457 132.127501,1.14798302 133.322317,1.14798302 C134.516549,1.14798302 135.312705,2.0218457 135.312705,3.02696048 C135.312705,4.03207526 134.516549,4.88406259 133.322317,4.88406259 C132.127501,4.88406259 131.352911,4.03207526 131.352911,3.02696048 L131.352911,3.02696048 Z M135.113374,16.2454287 C135.113374,16.9667396 135.467739,17.0761164 136.418929,17.1417424 L136.418929,17.9281037 L130.246686,17.9281037 L130.246686,17.1417424 C131.197876,17.0761164 131.552241,16.9667396 131.552241,16.2454287 L131.552241,8.53321643 L130.269417,7.76815483 L130.269417,7.26559744 L134.516549,6.04230482 L135.113374,6.04230482 L135.113374,16.2454287 Z" id="Fill-33"></path>
                <path d="M146.287874,12.5093492 C146.287874,9.73463369 145.270241,8.14003579 143.390009,8.14003579 C142.792601,8.14003579 142.195193,8.35821362 141.730672,8.70764356 L141.730672,14.8258336 C141.730672,16.3766809 142.261636,17.2292438 143.545043,17.2292438 C145.292388,17.2292438 146.287874,15.1533882 146.287874,12.5093492 L146.287874,12.5093492 Z M136.908279,2.39315099 L136.908279,1.8468429 L141.155995,0.819852768 L141.730672,0.819852768 L141.730672,8.11758477 C142.416671,7.09059464 143.633052,6.04230482 145.447423,6.04230482 C148.101662,6.04230482 149.893886,7.92070662 149.893886,11.3729823 C149.893886,15.743447 147.10676,18.1468572 143.566608,18.1468572 C141.575637,18.1468572 139.518806,17.6874749 138.191103,16.6173097 L138.191103,3.04883583 L136.908279,2.39315099 Z" id="Fill-35"></path>
                <path d="M155.482826,16.2457166 C155.482826,16.9670275 155.836608,17.0758286 156.809363,17.1414546 L156.809363,17.9283916 L150.616137,17.9283916 L150.616137,17.1414546 C151.589475,17.0758286 151.942674,16.9670275 151.942674,16.2457166 L151.942674,3.048548 L150.65985,2.39286316 L150.65985,1.84713073 L154.907566,0.820140601 L155.482826,0.820140601 L155.482826,16.2457166 Z" id="Fill-37"></path>
                <path d="M160.728067,10.3244046 L164.710009,10.3244046 C164.710009,8.24854904 164.22334,6.89400432 162.917785,6.89400432 C161.569101,6.89400432 160.860954,8.31417509 160.728067,10.3244046 M167.829352,10.7175853 L167.829352,11.2201427 L160.683771,11.2201427 C160.617328,14.0823596 162.143778,15.7869099 164.22334,15.7869099 C165.705494,15.7869099 166.723128,15.2187265 167.541431,14.1048106 L167.91736,14.3229884 C167.342683,16.6170219 165.683346,18.1465694 163.006376,18.1465694 C159.776877,18.1465694 157.47642,15.8962866 157.47642,12.3783849 C157.47642,8.55480394 160.042068,6.04201699 163.161411,6.04201699 C166.236459,6.04201699 167.829352,8.00849585 167.829352,10.7175853" id="Fill-39"></path>
                <path d="M54.223185,5.9653957 C53.7056258,6.45125874 53.2311965,6.89682509 52.7153858,7.38038546 C54.0885496,8.61231309 55.4255776,9.81545735 56.7620227,11.0157233 C56.7462861,11.071563 56.7311323,11.1446727 56.7148129,11.1861208 L41.813421,11.1861208 L41.813421,13.0777629 L56.7148129,13.0777629 C56.7311323,13.1186353 56.7462861,13.1928963 56.7620227,13.248736 C55.4255776,14.4484263 54.0885496,15.6521462 52.7153858,16.8846495 C53.2311965,17.3682099 53.7056258,17.8137762 54.223185,18.2990636 C56.2473776,16.2375997 58.2418456,14.1876491 60.2771122,12.1319418 C58.2418456,10.0589645 56.2473776,8.0274353 54.223185,5.9653957" id="Fill-41"></path>
                <path d="M182.187773,5.9653957 C181.670214,6.45125874 181.195785,6.89682509 180.679974,7.38038546 C182.053138,8.61231309 183.390166,9.81545735 184.726611,11.0157233 C184.710874,11.071563 184.69572,11.1446727 184.679401,11.1861208 L169.778009,11.1861208 L169.778009,13.0777629 L184.679401,13.0777629 C184.69572,13.1186353 184.710874,13.1928963 184.726611,13.248736 C183.390166,14.4484263 182.053138,15.6521462 180.679974,16.8846495 C181.195785,17.3682099 181.670214,17.8137762 182.187773,18.2990636 C184.211966,16.2375997 186.206434,14.1876491 188.2417,12.1319418 C186.206434,10.0589645 184.211966,8.0274353 182.187773,5.9653957" id="Fill-43"></path>
                <path d="M66.4940589,15.7166209 C66.4940589,16.9163112 66.6735727,17.0717413 68.2256674,17.2496225 L68.2256674,18.0935505 L60.9617707,18.0935505 L60.9617707,17.2496225 C62.4911349,17.0717413 62.6712315,16.9163112 62.6712315,15.7166209 L62.6712315,4.87738485 C62.6712315,3.67769459 62.4911349,3.52226447 60.9617707,3.344959 L60.9617707,2.50045534 L68.2256674,2.50045534 L68.2256674,3.344959 C66.6735727,3.52226447 66.4940589,3.67769459 66.4940589,4.87738485 L66.4940589,15.7166209 Z" id="Fill-45"></path>
            </g>
        </g>
    </g>
</svg>