<?xml version="1.0" encoding="UTF-8"?>
<svg width="265px" height="139px" viewBox="0 0 265 139" version="1.1" xmlns="http://www.w3.org/2000/svg" xmlns:xlink="http://www.w3.org/1999/xlink">
    <!-- Generator: Sketch 43.1 (39012) - http://www.bohemiancoding.com/sketch -->
    <title>logoBlockWhite</title>
    <desc>Created with Sketch.</desc>
    <defs>
        <path d="M129.785392,14.3728372 C128.55793,15.5477674 127.430816,16.6271395 126.207731,17.7965814 C129.465966,20.778907 132.638112,23.6898837 135.810282,26.5942326 C135.77211,26.7292791 135.735044,26.907186 135.697955,27.0060233 L100.337897,27.0060233 L100.337897,31.584907 L135.697955,31.584907 C135.735044,31.6837442 135.77211,31.8626977 135.810282,31.998907 C132.638112,34.9021628 129.465966,37.8152791 126.207731,40.7976279 C127.430816,41.9670465 128.55793,43.0453721 129.785392,44.2203023 C134.58828,39.2306512 139.321413,34.2707907 144.15047,29.2954419 C139.321413,24.2795581 134.58828,19.3624186 129.785392,14.3728372 Z" id="path-1"></path>
        <path d="M31.3042693,138.118344 L31.2976117,138.118344 C30.0715321,136.94471 28.9453625,135.867349 27.7234295,134.699016 C30.9816871,131.716691 34.1538107,128.803547 37.3259573,125.900284 C37.2877855,125.764123 37.2507657,125.58514 37.2136766,125.486314 L1.85360069,125.486314 L1.85360069,120.907421 L37.2136766,120.907421 C37.2507657,120.808593 37.2877855,120.630702 37.3259573,120.495644 C34.1538107,117.591277 30.9816871,114.680326 27.7234295,111.698 C28.9464913,110.528558 30.0736515,109.449186 31.3010672,108.274256 C36.1039782,113.263837 40.8370882,118.180944 45.6661688,123.196865 C40.8381709,128.171063 36.1060976,133.129891 31.3042693,138.118344 Z" id="path-3"></path>
        <path d="M79.55384,109.464326 L69.8434086,137.224329 L66.536129,137.224329 L56.3525939,109.464326 L53.7287426,130.508609 C53.6753206,130.932458 53.6230044,131.619842 53.6230044,131.83067 C53.6230044,134.369379 54.7261374,134.950251 58.6101164,135.214884 L58.6101164,137.224329 L46.1166965,137.224329 L46.1166965,135.214884 C49.108973,135.056763 50.2110693,134.420988 50.4737562,131.988788 L53.7810819,105.973605 C53.7810819,103.172465 52.783618,102.273163 49.3182609,102.115023 L49.3182609,100.105581 L62.4941185,100.105581 C62.598751,101.321116 62.9148599,102.220442 63.3345416,103.383279 L71.2070861,125.116047 L78.6087384,103.383279 C79.0295489,102.115023 79.3958547,101.321116 79.5015468,100.105581 L92.4146714,100.105581 L92.4146714,102.115023 C89.0026903,102.273163 88.0052955,103.172465 88.0052955,105.973605 L91.2591992,131.988788 C91.6265416,134.580207 92.7297206,135.056763 95.668552,135.214884 L95.668552,137.224329 L77.2450609,137.224329 L77.2450609,135.214884 C80.9720913,134.950251 82.2310672,134.369379 82.2310672,131.83067 C82.2310672,131.619842 82.1787971,130.932458 82.1787971,130.508609 L79.55384,109.464326 Z" id="path-5"></path>
        <path d="M112.837352,131.777744 L112.837352,121.942437 L109.110391,123.423719 C107.063193,124.269223 105.750703,125.326651 105.750703,128.340821 C105.750703,131.091453 106.906221,133.047098 109.635788,133.047098 C110.842516,133.047098 111.682916,132.57164 112.837352,131.777744 Z M121.184106,131.407693 C121.184106,132.940586 121.446839,134.051821 122.75926,134.051821 C123.546284,134.051821 124.228676,133.839898 124.70072,133.62797 L125.015769,134.897326 C123.441652,136.694847 121.341101,137.752276 118.611511,137.752276 C115.67268,137.752276 113.676738,136.061265 112.99543,133.205219 C111.368973,135.425493 108.744085,137.646863 104.963679,137.646863 C100.606665,137.646863 97.6677646,135.056544 97.6677646,130.667605 C97.6677646,126.06784 100.869352,124.216514 104.700946,122.78904 L112.837352,119.881377 L112.837352,114.964279 C112.837352,112.213651 111.997966,110.310721 109.583471,110.310721 C107.325903,110.310721 106.380801,112.108233 106.380801,114.645837 C106.380801,115.757077 106.538833,116.867216 106.853882,118.08386 L101.814477,118.771235 C100.344992,118.294693 99.3475971,117.078049 99.3475971,115.280512 C99.3475971,110.680767 104.072022,108.459395 110.161231,108.459395 C117.142095,108.459395 121.184106,110.838884 121.184106,117.395386 L121.184106,131.407693 Z" id="path-7"></path>
        <path d="M141.541708,131.883488 C144.692016,131.883488 147.001901,130.667937 148.68065,128.181935 L149.730385,128.763905 C148.051704,134.844949 144.00967,137.752605 138.392437,137.752605 C131.201201,137.752605 125.846701,132.465458 125.846701,124.004923 C125.846701,115.121628 131.305834,108.459721 139.809582,108.459721 C145.005959,108.459721 148.94336,110.52186 148.94336,114.858093 C148.94336,116.708333 147.94592,118.030381 146.791553,118.558553 L142.328709,118.558553 C142.434447,117.554937 142.539172,116.708333 142.539172,115.757419 C142.539172,112.848674 141.646341,110.627279 138.917857,110.627279 C135.295528,110.627279 133.143721,115.016233 133.143721,120.673407 C133.143721,127.494549 136.239524,131.883488 141.541708,131.883488 Z" id="path-9"></path>
        <path d="M154.699113,101.216047 L151.706814,99.6293488 L151.706814,98.3083953 L161.785716,95.8224186 L163.149394,95.8224186 L163.149394,113.694372 C165.250014,111.102953 168.293478,108.45993 172.860954,108.45993 C177.847006,108.45993 180.577633,111.367581 180.577633,117.131291 L180.577633,133.15306 C180.577633,134.897874 181.417019,135.161409 183.674542,135.320628 L183.674542,137.223561 L169.13397,137.223561 L169.13397,135.320628 C171.391515,135.161409 172.126246,134.897874 172.126246,133.15306 L172.126246,117.712165 C172.126246,114.963744 171.128805,113.536256 168.346946,113.536256 C166.40438,113.536256 164.672255,114.276349 163.149394,115.227272 L163.149394,133.15306 C163.149394,134.897874 163.885231,135.161409 166.14167,135.320628 L166.14167,137.223561 L151.601076,137.223561 L151.601076,135.320628 C153.859727,135.161409 154.699113,134.897874 154.699113,133.15306 L154.699113,101.216047 Z" id="path-11"></path>
        <path d="M189.720833,101.163326 C189.720833,98.7311395 191.55872,96.6162791 194.392919,96.6162791 C197.228223,96.6162791 199.117344,98.7311395 199.117344,101.163326 C199.117344,103.595535 197.228223,105.656581 194.392919,105.656581 C191.55872,105.656581 189.720833,103.595535 189.720833,101.163326 Z M198.644194,133.15306 C198.644194,134.897874 199.484686,135.161409 201.741126,135.320628 L201.741126,137.223561 L187.097004,137.223561 L187.097004,135.320628 C189.353467,135.161409 190.192808,134.897874 190.192808,133.15306 L190.192808,114.488256 L187.149275,112.636953 L187.149275,111.421395 L197.228223,108.45993 L198.644194,108.45993 L198.644194,133.15306 Z" id="path-13"></path>
        <path d="M225.744877,117.712723 C225.744877,114.964279 224.747413,113.535698 221.96553,113.535698 C220.023011,113.535698 218.238615,114.275791 216.769153,115.227809 L216.769153,133.152512 C216.769153,134.897326 217.502824,135.161958 219.760278,135.320077 L219.760278,137.22411 L205.220789,137.22411 L205.220789,135.320077 C207.477413,135.161958 208.317605,134.897326 208.317605,133.152512 L208.317605,114.487721 L205.273151,112.637488 L205.273151,111.420837 L215.403241,108.459395 L216.978395,108.459395 L216.769153,113.693837 C218.868713,111.103512 221.860921,108.459395 226.479608,108.459395 C231.466743,108.459395 234.196217,111.315442 234.196217,117.078049 L234.196217,133.152512 C234.196217,134.897326 235.036594,135.161958 237.293264,135.320077 L237.293264,137.22411 L222.752485,137.22411 L222.752485,135.320077 C225.010146,135.161958 225.744877,134.897326 225.744877,133.152512 L225.744877,117.712723 Z" id="path-15"></path>
        <path d="M245.887777,118.823079 L255.336489,118.823079 C255.336489,113.800558 254.180971,110.521767 251.084154,110.521767 C247.882521,110.521767 246.202688,113.958674 245.887777,118.823079 Z M262.737243,119.775088 L262.737243,120.990635 L245.782039,120.990635 C245.626081,127.918291 249.247212,132.041495 254.180971,132.041495 C257.698667,132.041495 260.113369,130.667826 262.054898,127.970995 L262.947568,128.50026 C261.582646,134.05204 257.645453,137.752495 251.294479,137.752495 C243.630186,137.752495 238.17096,132.307226 238.17096,123.792886 C238.17096,114.540651 244.260238,108.459605 251.661913,108.459605 C258.95785,108.459605 262.737243,113.218605 262.737243,119.775088 Z" id="path-17"></path>
        <path d="M35.7628976,6.20395349 L36.5499217,18.9469302 L34.6608013,18.9469302 C31.0918714,10.8564419 29.7271112,8.21339535 25.9466819,8.21339535 L23.6902237,8.21339535 L23.6902237,37.8763256 C23.6902237,40.7312791 24.6876507,40.8904884 28.2042735,41.3132326 L28.2042735,43.3226744 L10.1993768,43.3226744 L10.1993768,41.3132326 C13.7170731,40.8904884 14.7668209,40.7312791 14.7668209,37.8763256 L14.7668209,8.21339535 L12.4569384,8.21339535 C8.67762408,8.21339535 7.31283853,10.8564419 3.74282021,18.9469302 L1.85370935,18.9469302 L2.64074945,6.20395349 L35.7628976,6.20395349 Z" id="path-19"></path>
        <path d="M41.4978253,7.31476744 L38.5055028,5.72809302 L38.5055028,4.40713953 L48.5844285,1.92106977 L49.9492117,1.92106977 L49.9492117,19.7930698 C52.0487259,17.2016512 55.0932955,14.5586744 59.6596662,14.5586744 C64.6468013,14.5586744 67.3763447,17.4663023 67.3763447,23.23 L67.3763447,39.2506512 C67.3763447,40.9965581 68.2157081,41.260093 70.4732536,41.4193256 L70.4732536,43.3223023 L55.9326819,43.3223023 L55.9326819,41.4193256 C58.1902044,41.260093 58.9249583,40.9965581 58.9249583,39.2506512 L58.9249583,23.8108605 C58.9249583,21.0624419 57.9286232,19.6349535 55.1456578,19.6349535 C53.2031154,19.6349535 51.4709667,20.3750465 49.9492117,21.3259767 L49.9492117,39.2506512 C49.9492117,40.9965581 50.6839426,41.260093 52.9404285,41.4193256 L52.9404285,43.3223023 L38.4008934,43.3223023 L38.4008934,41.4193256 C40.6573793,41.260093 41.4978253,40.9965581 41.4978253,39.2506512 L41.4978253,7.31476744 Z" id="path-21"></path>
        <path d="M79.0681583,24.9216512 L88.5169164,24.9216512 C88.5169164,19.8991628 87.362573,16.6203488 84.265641,16.6203488 C81.063017,16.6203488 79.3831384,20.0572791 79.0681583,24.9216512 Z M95.9175552,25.8736977 L95.9175552,27.0892093 L78.9624201,27.0892093 C78.8054484,34.0169302 82.4277772,38.1401395 87.362573,38.1401395 C90.8780578,38.1401395 93.2925981,36.7664419 95.2351636,34.0695814 L96.1279028,34.598907 C94.7642253,40.1506047 90.8268243,43.8510698 84.4738693,43.8510698 C76.8105437,43.8510698 71.3514568,38.405814 71.3514568,29.8914884 C71.3514568,20.6392558 77.4406651,14.5582326 84.8423175,14.5582326 C92.1382316,14.5582326 95.9175552,19.317186 95.9175552,25.8736977 Z" id="path-23"></path>
        <path d="M14.7661644,84.3796279 C14.7661644,87.2345814 15.1869265,87.6057209 18.8081818,88.0284884 L18.8081818,90.0379302 L1.85414617,90.0379302 L1.85414617,88.0284884 C5.42307309,87.6057209 5.8438467,87.2345814 5.8438467,84.3796279 L5.8438467,58.5764186 C5.8438467,55.7214651 5.42307309,55.3513953 1.85414617,54.9275349 L1.85414617,52.9192093 L18.8081818,52.9192093 L18.8081818,54.9275349 C15.1869265,55.3513953 14.7661644,55.7214651 14.7661644,58.5764186 L14.7661644,84.3796279 Z" id="path-25"></path>
        <path d="M42.2791594,70.526093 C42.2791594,67.7776977 41.2817646,66.349093 38.4987761,66.349093 C36.5584222,66.349093 34.7728515,67.0891628 33.3034358,68.0412326 L33.3034358,85.965907 C33.3034358,87.7106977 34.0381437,87.9753488 36.2957353,88.1334419 L36.2957353,90.0375116 L21.7551175,90.0375116 L21.7551175,88.1334419 C24.0115826,87.9753488 24.8520471,87.7106977 24.8520471,85.965907 L24.8520471,67.3011395 L21.8074314,65.450907 L21.8074314,64.2342093 L31.9386526,61.272814 L33.5127238,61.272814 L33.3034358,66.5072093 C35.4018212,63.916907 38.3952034,61.272814 43.0138903,61.272814 C48.0010253,61.272814 50.7294861,64.1287907 50.7294861,69.8914419 L50.7294861,85.965907 C50.7294861,87.7106977 51.5710379,87.9753488 53.8275007,88.1334419 L53.8275007,90.0375116 L39.286906,90.0375116 L39.286906,88.1334419 C41.5444515,87.9753488 42.2791594,87.7106977 42.2791594,85.965907 L42.2791594,70.526093 Z" id="path-27"></path>
        <path d="M70.4010798,84.6968605 C73.550351,84.6968605 75.8602588,83.4813023 77.5400913,80.9953256 L78.5898023,81.5773023 C76.9099698,87.6583256 72.8679363,90.5659767 67.2507719,90.5659767 C60.060596,90.5659767 54.7061185,85.2788372 54.7061185,76.8183023 C54.7061185,67.935 60.1652515,61.2731163 68.6689541,61.2731163 C73.8654002,61.2731163 77.8028013,63.3352558 77.8028013,67.6714651 C77.8028013,69.5216977 76.8042316,70.8437442 75.6509018,71.3719302 L71.188173,71.3719302 C71.2927824,70.3683023 71.3985206,69.5216977 71.3985206,68.5697209 C71.3985206,65.6620233 70.5057814,63.4406744 67.7761918,63.4406744 C64.153863,63.4406744 62.0020557,67.8295814 62.0020557,73.4867907 C62.0020557,80.3079302 65.0989646,84.6968605 70.4010798,84.6968605 Z" id="path-29"></path>
        <path d="M92.6701709,85.3308837 C92.6701709,87.5522558 93.8256662,87.816907 96.9748683,88.1342326 L96.9748683,90.037186 L81.1229583,90.037186 L81.1229583,88.1342326 C83.3793981,87.975 84.2187615,87.7114884 84.2187615,85.9655581 L84.2187615,67.3007907 L81.1741918,65.4505814 L81.1741918,64.2350233 L91.304328,61.2735116 L92.8805876,61.2735116 L92.6701709,69.2575116 C94.9789269,63.2829535 96.6598882,61.2735116 99.8614526,61.2735116 C101.015865,61.2735116 101.856288,61.6436047 102.328309,62.1717674 L102.328309,68.6228605 L101.226236,68.6228605 C97.9199929,68.6228605 95.1893667,68.7809535 92.6701709,71.0550698 L92.6701709,85.3308837 Z" id="path-31"></path>
        <path d="M111.658405,71.6364186 L121.107256,71.6364186 C121.107256,66.6139302 119.951783,63.3351163 116.854875,63.3351163 C113.653241,63.3351163 111.973478,66.7720465 111.658405,71.6364186 Z M128.508885,72.5884884 L128.508885,73.8040233 L111.55269,73.8040233 C111.395695,80.7316977 115.018047,84.854907 119.951783,84.854907 C123.46948,84.854907 125.883997,83.4812093 127.825388,80.7843721 L128.718219,81.3136744 C127.353413,86.8654186 123.417141,90.5658605 117.065222,90.5658605 C109.40086,90.5658605 103.94281,85.1206047 103.94281,76.6062558 C103.94281,67.3540233 110.030912,61.273 117.431528,61.273 C124.729585,61.273 128.508885,66.0319767 128.508885,72.5884884 Z" id="path-33"></path>
        <path d="M140.982148,74.4390233 C140.982148,80.9428372 143.450133,85.5953023 147.859486,85.5953023 C149.328902,85.5953023 150.589076,85.1725349 151.638787,84.3797674 L151.638787,70.0500698 C151.638787,66.1903953 150.274003,64.0228372 147.334066,64.0228372 C143.239693,64.0228372 140.982148,68.1998605 140.982148,74.4390233 Z M148.594217,52.4427209 L148.594217,51.1217674 L158.724353,48.6357907 L160.090173,48.6357907 L160.090173,84.2205349 C160.090173,86.0191628 160.193792,86.7065116 162.083995,86.8119535 L163.344077,86.8646744 L163.344077,88.7148837 L153.003593,90.5662093 L151.480732,90.5662093 L151.638787,85.5953023 C149.485897,88.7148837 146.756307,90.5662093 143.133955,90.5662093 C136.887844,90.5662093 132.58416,85.5425814 132.58416,77.2412791 C132.58416,67.0897442 138.567608,61.4325349 146.1797,61.4325349 C148.488479,61.4325349 150.378705,62.0661395 151.638787,63.1235581 L151.638787,54.0294186 L148.594217,52.4427209 Z" id="path-35"></path>
        <path d="M169.146594,53.9767209 C169.146594,51.5445349 170.984504,49.4296512 173.818703,49.4296512 C176.654031,49.4296512 178.543128,51.5445349 178.543128,53.9767209 C178.543128,56.408907 176.654031,58.4700233 173.818703,58.4700233 C170.984504,58.4700233 169.146594,56.408907 169.146594,53.9767209 Z M178.069978,85.9664419 C178.069978,87.7112558 178.91047,87.9747907 181.16691,88.134 L181.16691,90.0369535 L166.522812,90.0369535 L166.522812,88.134 C168.779252,87.9747907 169.619721,87.7112558 169.619721,85.9664419 L169.619721,67.3016512 L166.575082,65.4503256 L166.575082,64.234814 L176.654031,61.2733256 L178.069978,61.2733256 L178.069978,85.9664419 Z" id="path-37"></path>
        <path d="M204.585069,76.9239302 C204.585069,70.2093023 202.170575,66.3496047 197.708837,66.3496047 C196.291714,66.3496047 194.874638,66.8777907 193.771459,67.7233023 L193.771459,82.5295349 C193.771459,86.2826977 195.03161,88.3459302 198.076202,88.3459302 C202.223951,88.3459302 204.585069,83.3223256 204.585069,76.9239302 Z M182.328902,52.4427209 L182.328902,51.1217674 L192.407758,48.6357907 L193.771459,48.6357907 L193.771459,66.2969535 C195.398952,63.8109535 198.28655,61.2733256 202.590257,61.2733256 C208.889767,61.2733256 213.141088,65.8203721 213.141088,74.1743953 C213.141088,84.7497907 206.527589,90.5662093 198.128519,90.5662093 C193.404116,90.5662093 188.52272,89.456093 185.373471,86.8646744 L185.373471,54.0294186 L182.328902,52.4427209 Z" id="path-39"></path>
        <path d="M226.403541,85.965907 C226.403541,87.7106977 227.242904,87.9753488 229.551729,88.1334419 L229.551729,90.0375116 L214.855176,90.0375116 L214.855176,88.1334419 C217.165061,87.9753488 218.003365,87.7106977 218.003365,85.965907 L218.003365,54.0288837 L214.959809,52.442186 L214.959809,51.1212558 L225.038711,48.6352093 L226.403541,48.6352093 L226.403541,85.965907 Z" id="path-41"></path>
        <path d="M238.84962,71.6364186 L248.298563,71.6364186 C248.298563,66.6139302 247.143044,63.3351163 244.046227,63.3351163 C240.844594,63.3351163 239.164761,66.7720465 238.84962,71.6364186 Z M255.700238,72.5884884 L255.700238,73.8040233 L238.745034,73.8040233 C238.587002,80.7316977 242.209515,84.854907 247.143044,84.854907 C250.659589,84.854907 253.075212,83.4812093 255.016741,80.7843721 L255.909641,81.3136744 C254.54472,86.8654186 250.608447,90.5658605 244.256552,90.5658605 C236.592259,90.5658605 231.134116,85.1206047 231.134116,76.6062558 C231.134116,67.3540233 237.222311,61.273 244.623987,61.273 C251.919924,61.273 255.700238,66.0319767 255.700238,72.5884884 Z" id="path-43"></path>
    </defs>
    <g id="Page-1" stroke="none" stroke-width="1" fill="none" fill-rule="evenodd">
        <g id="logoBlockWhite">
            <mask id="mask-2" fill="white">
                <use xlink:href="#path-1"></use>
            </mask>
            <g id="Clip-2"></g>
            <polygon id="Fill-1" fill="#FFFFFF" mask="url(#mask-2)" points="90.4843384 54.1413953 154.004121 54.1413953 154.004121 4.45174419 90.4843384 4.45174419"></polygon>
            <mask id="mask-4" fill="white">
                <use xlink:href="#path-3"></use>
            </mask>
            <g id="Clip-5"></g>
            <polygon id="Fill-4" fill="#FFFFFF" mask="url(#mask-4)" points="-8 148.04277 55.5197822 148.04277 55.5197822 98.3531419 -8 98.3531419"></polygon>
            <mask id="mask-6" fill="white">
                <use xlink:href="#path-5"></use>
            </mask>
            <g id="Clip-8"></g>
            <polygon id="Fill-7" fill="#FFFFFF" mask="url(#mask-6)" points="36.2631154 147.145437 105.522133 147.145437 105.522133 90.1844605 36.2631154 90.1844605"></polygon>
            <mask id="mask-8" fill="white">
                <use xlink:href="#path-7"></use>
            </mask>
            <g id="Clip-11"></g>
            <polygon id="Fill-10" fill="#FFFFFF" mask="url(#mask-8)" points="87.8141835 147.673384 134.86935 147.673384 134.86935 98.5382674 87.8141835 98.5382674"></polygon>
            <mask id="mask-10" fill="white">
                <use xlink:href="#path-9"></use>
            </mask>
            <g id="Clip-14"></g>
            <polygon id="Fill-13" fill="#FFFFFF" mask="url(#mask-10)" points="115.99312 147.673714 159.584012 147.673714 159.584012 98.5385977 115.99312 98.5385977"></polygon>
            <mask id="mask-12" fill="white">
                <use xlink:href="#path-11"></use>
            </mask>
            <g id="Clip-17"></g>
            <polygon id="Fill-16" fill="#FFFFFF" mask="url(#mask-12)" points="141.747517 147.14467 193.528215 147.14467 193.528215 85.9012744 141.747517 85.9012744"></polygon>
            <mask id="mask-14" fill="white">
                <use xlink:href="#path-13"></use>
            </mask>
            <g id="Clip-20"></g>
            <polygon id="Fill-19" fill="#FFFFFF" mask="url(#mask-14)" points="177.243377 147.14467 211.594776 147.14467 211.594776 86.6951581 177.243377 86.6951581"></polygon>
            <mask id="mask-16" fill="white">
                <use xlink:href="#path-15"></use>
            </mask>
            <g id="Clip-23"></g>
            <polygon id="Fill-22" fill="#FFFFFF" mask="url(#mask-16)" points="195.367208 147.145219 247.146799 147.145219 247.146799 98.5382651 195.367208 98.5382651"></polygon>
            <mask id="mask-18" fill="white">
                <use xlink:href="#path-17"></use>
            </mask>
            <g id="Clip-26"></g>
            <polygon id="Fill-25" fill="#FFFFFF" mask="url(#mask-18)" points="228.317425 147.673605 272.80108 147.673605 272.80108 98.5385116 228.317425 98.5385116"></polygon>
            <mask id="mask-20" fill="white">
                <use xlink:href="#path-19"></use>
            </mask>
            <g id="Clip-29"></g>
            <polygon id="Fill-28" fill="#FFFFFF" mask="url(#mask-20)" points="-7.99988942 53.2437907 46.4035305 53.2437907 46.4035305 -3.71716279 -7.99988942 -3.71716279"></polygon>
            <mask id="mask-22" fill="white">
                <use xlink:href="#path-21"></use>
            </mask>
            <g id="Clip-32"></g>
            <polygon id="Fill-31" fill="#FFFFFF" mask="url(#mask-22)" points="28.5472892 53.2434186 80.3269039 53.2434186 80.3269039 -8 28.5472892 -8"></polygon>
            <mask id="mask-24" fill="white">
                <use xlink:href="#path-23"></use>
            </mask>
            <g id="Clip-35"></g>
            <polygon id="Fill-34" fill="#FFFFFF" mask="url(#mask-24)" points="61.4978526 53.772186 105.981553 53.772186 105.981553 4.63711628 61.4978526 4.63711628"></polygon>
            <mask id="mask-26" fill="white">
                <use xlink:href="#path-25"></use>
            </mask>
            <g id="Clip-38"></g>
            <polygon id="Fill-37" fill="#FFFFFF" mask="url(#mask-26)" points="-7.99945403 99.9590465 28.6617837 99.9590465 28.6617837 42.998093 -7.99945403 42.998093"></polygon>
            <mask id="mask-28" fill="white">
                <use xlink:href="#path-27"></use>
            </mask>
            <g id="Clip-41"></g>
            <polygon id="Fill-40" fill="#FFFFFF" mask="url(#mask-28)" points="11.9015156 99.9586047 63.6811303 99.9586047 63.6811303 51.3516744 11.9015156 51.3516744"></polygon>
            <mask id="mask-30" fill="white">
                <use xlink:href="#path-29"></use>
            </mask>
            <g id="Clip-44"></g>
            <polygon id="Fill-43" fill="#FFFFFF" mask="url(#mask-30)" points="44.8525143 100.487093 88.4433835 100.487093 88.4433835 51.3520233 44.8525143 51.3520233"></polygon>
            <mask id="mask-32" fill="white">
                <use xlink:href="#path-31"></use>
            </mask>
            <g id="Clip-47"></g>
            <polygon id="Fill-46" fill="#FFFFFF" mask="url(#mask-32)" points="71.2693081 99.9583023 112.181867 99.9583023 112.181867 51.3524419 71.2693081 51.3524419"></polygon>
            <mask id="mask-34" fill="white">
                <use xlink:href="#path-33"></use>
            </mask>
            <g id="Clip-50"></g>
            <polygon id="Fill-49" fill="#FFFFFF" mask="url(#mask-34)" points="94.0892285 100.486977 138.5718 100.486977 138.5718 51.3518837 94.0892285 51.3518837"></polygon>
            <mask id="mask-36" fill="white">
                <use xlink:href="#path-35"></use>
            </mask>
            <g id="Clip-53"></g>
            <polygon id="Fill-52" fill="#FFFFFF" mask="url(#mask-36)" points="122.730579 100.487302 173.197704 100.487302 173.197704 38.7146744 122.730579 38.7146744"></polygon>
            <mask id="mask-38" fill="white">
                <use xlink:href="#path-37"></use>
            </mask>
            <g id="Clip-56"></g>
            <polygon id="Fill-55" fill="#FFFFFF" mask="url(#mask-38)" points="156.669161 99.9580465 191.02056 99.9580465 191.02056 39.5085349 156.669161 39.5085349"></polygon>
            <mask id="mask-40" fill="white">
                <use xlink:href="#path-39"></use>
            </mask>
            <g id="Clip-59"></g>
            <polygon id="Fill-58" fill="#FFFFFF" mask="url(#mask-40)" points="172.475252 100.487302 222.994738 100.487302 222.994738 38.7146744 172.475252 38.7146744"></polygon>
            <mask id="mask-42" fill="white">
                <use xlink:href="#path-41"></use>
            </mask>
            <g id="Clip-62"></g>
            <polygon id="Fill-61" fill="#FFFFFF" mask="url(#mask-42)" points="205.001641 99.9586047 239.405379 99.9586047 239.405379 38.7140698 205.001641 38.7140698"></polygon>
            <mask id="mask-44" fill="white">
                <use xlink:href="#path-43"></use>
            </mask>
            <g id="Clip-65"></g>
            <polygon id="Fill-64" fill="#FFFFFF" mask="url(#mask-44)" points="221.280581 100.486977 265.763153 100.486977 265.763153 51.3518837 221.280581 51.3518837"></polygon>
        </g>
    </g>
</svg>